<svg xmlns="http://www.w3.org/2000/svg" xmlns:xlink="http://www.w3.org/1999/xlink" width="1920" zoomAndPan="magnify" viewBox="0 0 1440 809.999993" height="1080" preserveAspectRatio="xMidYMid meet" version="1.0"><defs><g/></defs><g fill="#000000" fill-opacity="1"><g transform="translate(672.016796, 416.625906)"><g><path d="M 20.796875 0.484375 L 22.75 0.484375 L 22.75 -1.5 L 24.734375 -1.5 L 24.734375 -3.140625 L 22.75 -3.140625 L 22.75 -19.296875 L 24.734375 -19.296875 L 24.734375 -22.90625 L 22.75 -22.90625 L 22.75 -25.21875 L 31.015625 -25.21875 L 31.015625 -18.9375 L 29.03125 -18.9375 L 29.03125 -17.3125 L 31.015625 -17.3125 L 31.015625 -3.140625 L 29.03125 -3.140625 L 29.03125 -1.5 L 31.015625 -1.5 L 31.015625 2.84375 L 28.671875 2.84375 L 28.671875 -1.15625 L 25.09375 -1.15625 L 25.09375 0.859375 L 23.109375 0.859375 L 23.109375 2.84375 L 20.796875 2.84375 Z M 10.90625 0.859375 L 10.90625 -3.453125 L 12.890625 -3.453125 L 12.890625 -7.421875 L 14.84375 -7.421875 L 14.84375 -9.0625 L 10.90625 -9.0625 L 10.90625 -17.3125 L 14.84375 -17.3125 L 14.84375 -20.921875 L 10.90625 -20.921875 L 10.90625 -23.265625 L 14.84375 -23.265625 L 14.84375 -27.203125 L 17.1875 -27.203125 L 17.1875 -23.265625 L 21.125 -23.265625 L 21.125 -20.921875 L 17.1875 -20.921875 L 17.1875 -17.3125 L 21.125 -17.3125 L 21.125 -9.0625 L 19.171875 -9.0625 L 19.171875 -7.421875 L 21.125 -7.421875 L 21.125 -3.140625 L 18.8125 -3.140625 L 18.8125 -7.078125 L 17.1875 -7.078125 L 17.1875 2.84375 L 14.84375 2.84375 L 14.84375 -3.140625 L 13.21875 -3.140625 L 13.21875 0.859375 Z M 3.015625 0.484375 L 6.9375 0.484375 L 6.9375 -11.046875 L 5.3125 -11.046875 L 5.3125 -7.078125 L 3.359375 -7.078125 L 3.359375 -5.125 L 0.984375 -5.125 L 0.984375 -7.421875 L 3.015625 -7.421875 L 3.015625 -11.390625 L 4.984375 -11.390625 L 4.984375 -16.953125 L 3.359375 -16.953125 L 3.359375 -15.015625 L 0.984375 -15.015625 L 0.984375 -17.3125 L 3.015625 -17.3125 L 3.015625 -19.296875 L 4.984375 -19.296875 L 4.984375 -20.921875 L 3.015625 -20.921875 L 3.015625 -24.890625 L 0.984375 -24.890625 L 0.984375 -27.203125 L 3.359375 -27.203125 L 3.359375 -25.21875 L 5.3125 -25.21875 L 5.3125 -23.265625 L 6.9375 -23.265625 L 6.9375 -27.203125 L 9.28125 -27.203125 L 9.28125 -22.90625 L 7.296875 -22.90625 L 7.296875 -13.375 L 9.28125 -13.375 L 9.28125 0.859375 L 7.296875 0.859375 L 7.296875 2.84375 L 3.015625 2.84375 Z M 25.09375 -13.375 L 28.671875 -13.375 L 28.671875 -15.015625 L 25.09375 -15.015625 Z M 17.1875 -11.390625 L 18.8125 -11.390625 L 18.8125 -15.015625 L 17.1875 -15.015625 Z M 13.21875 -11.390625 L 14.84375 -11.390625 L 14.84375 -15.015625 L 13.21875 -15.015625 Z M 25.09375 -5.4375 L 28.671875 -5.4375 L 28.671875 -7.078125 L 25.09375 -7.078125 Z M 25.09375 -9.40625 L 28.671875 -9.40625 L 28.671875 -11.046875 L 25.09375 -11.046875 Z M 27.078125 -19.296875 L 28.671875 -19.296875 L 28.671875 -22.90625 L 27.078125 -22.90625 Z M 25.09375 -17.3125 L 26.71875 -17.3125 L 26.71875 -18.9375 L 25.09375 -18.9375 Z M 25.09375 -17.3125 "/></g></g></g><g fill="#000000" fill-opacity="1"><g transform="translate(704.008937, 416.625906)"><g><path d="M 4.984375 2.84375 L 4.984375 -13.375 L 27.078125 -13.375 L 27.078125 0.859375 L 25.09375 0.859375 L 25.09375 2.84375 L 18.8125 2.84375 L 18.8125 0.484375 L 24.734375 0.484375 L 24.734375 -3.140625 L 7.296875 -3.140625 L 7.296875 2.84375 Z M 3.015625 -15.015625 L 3.015625 -17.3125 L 6.9375 -17.3125 L 6.9375 -19.296875 L 8.921875 -19.296875 L 8.921875 -20.921875 L 0.984375 -20.921875 L 0.984375 -23.265625 L 14.84375 -23.265625 L 14.84375 -27.203125 L 17.1875 -27.203125 L 17.1875 -23.265625 L 31.015625 -23.265625 L 31.015625 -20.921875 L 23.109375 -20.921875 L 23.109375 -19.296875 L 25.09375 -19.296875 L 25.09375 -17.3125 L 27.078125 -17.3125 L 27.078125 -15.015625 L 24.734375 -15.015625 L 24.734375 -16.953125 L 23.109375 -16.953125 L 23.109375 -15.015625 Z M 9.28125 -17.3125 L 22.75 -17.3125 L 22.75 -18.9375 L 20.796875 -18.9375 L 20.796875 -20.921875 L 11.265625 -20.921875 L 11.265625 -18.9375 L 9.28125 -18.9375 Z M 7.296875 -9.40625 L 24.734375 -9.40625 L 24.734375 -11.046875 L 7.296875 -11.046875 Z M 7.296875 -5.4375 L 24.734375 -5.4375 L 24.734375 -7.078125 L 7.296875 -7.078125 Z M 7.296875 -5.4375 "/></g></g></g><g fill="#000000" fill-opacity="1"><g transform="translate(736.001077, 416.625906)"><g><path d="M 0.984375 0.484375 L 3.015625 0.484375 L 3.015625 -5.4375 L 4.984375 -5.4375 L 4.984375 -21.28125 L 16.828125 -21.28125 L 16.828125 -27.203125 L 19.171875 -27.203125 L 19.171875 -21.28125 L 24.734375 -21.28125 L 24.734375 -22.90625 L 22.75 -22.90625 L 22.75 -25.21875 L 25.09375 -25.21875 L 25.09375 -23.265625 L 27.078125 -23.265625 L 27.078125 -21.28125 L 31.015625 -21.28125 L 31.015625 -18.9375 L 19.171875 -18.9375 L 19.171875 -11.390625 L 21.125 -11.390625 L 21.125 -7.421875 L 22.75 -7.421875 L 22.75 -11.390625 L 24.734375 -11.390625 L 24.734375 -15.328125 L 27.078125 -15.328125 L 27.078125 -11.046875 L 25.09375 -11.046875 L 25.09375 -7.078125 L 23.109375 -7.078125 L 23.109375 -3.453125 L 25.09375 -3.453125 L 25.09375 -1.5 L 27.078125 -1.5 L 27.078125 0.484375 L 28.671875 0.484375 L 28.671875 -5.4375 L 31.015625 -5.4375 L 31.015625 0.859375 L 29.03125 0.859375 L 29.03125 2.84375 L 26.71875 2.84375 L 26.71875 0.859375 L 24.734375 0.859375 L 24.734375 -1.15625 L 22.75 -1.15625 L 22.75 -3.140625 L 19.171875 -3.140625 L 19.171875 -1.15625 L 17.1875 -1.15625 L 17.1875 0.859375 L 14.84375 0.859375 L 14.84375 -1.5 L 16.828125 -1.5 L 16.828125 -3.453125 L 18.8125 -3.453125 L 18.8125 -5.4375 L 20.796875 -5.4375 L 20.796875 -7.078125 L 18.8125 -7.078125 L 18.8125 -11.046875 L 16.828125 -11.046875 L 16.828125 -18.9375 L 7.296875 -18.9375 L 7.296875 -13.375 L 15.203125 -13.375 L 15.203125 -3.140625 L 13.21875 -3.140625 L 13.21875 -1.15625 L 8.921875 -1.15625 L 8.921875 -3.453125 L 12.890625 -3.453125 L 12.890625 -11.046875 L 7.296875 -11.046875 L 7.296875 -5.125 L 5.3125 -5.125 L 5.3125 0.859375 L 3.359375 0.859375 L 3.359375 2.84375 L 0.984375 2.84375 Z M 0.984375 0.484375 "/></g></g></g></svg>